0
SECTION
2
HEADER
9
$INSUNITS
70
4
9
$ACADVER
1
AC1014
9
$HANDSEED
5
FFFF
0
ENDSEC
0
SECTION
2
TABLES
0
TABLE
2
VPORT
5
8
100
AcDbSymbolTable
0
ENDTAB
0
TABLE
2
LTYPE
5
5
100
AcDbSymbolTable
0
LTYPE
5
14
100
AcDbSymbolTableRecord
100
AcDbLinetypeTableRecord
2
BYBLOCK
70
0
0
LTYPE
5
15
100
AcDbSymbolTableRecord
100
AcDbLinetypeTableRecord
2
BYLAYER
70
0
0
LTYPE
5
16
100
AcDbSymbolTableRecord
100
AcDbLinetypeTableRecord
2
DASHED
70
0
3
Dashed __ __ __ __ __ __ __ __ __ __ __ __ __ _
72
65
73
2
40
0.75
49
0.5
74
0
49
-0.25
74
0
0
ENDTAB
0
TABLE
2
LAYER
5
2
100
AcDbSymbolTable
70
2
0
LAYER
5
50
100
AcDbSymbolTableRecord
100
AcDbLayerTableRecord
2
0
70
0
62
7
6
CONTINUOUS
0
ENDTAB
0
TABLE
2
STYLE
5
3
100
AcDbSymbolTable
70
1
0
STYLE
5
11
100
AcDbSymbolTableRecord
100
AcDbTextStyleTableRecord
2
STANDARD
70
0
0
ENDTAB
0
TABLE
2
VIEW
5
6
100
AcDbSymbolTable
70
0
0
ENDTAB
0
TABLE
2
UCS
5
7
100
AcDbSymbolTable
70
0
0
ENDTAB
0
TABLE
2
APPID
5
9
100
AcDbSymbolTable
70
2
0
APPID
5
12
100
AcDbSymbolTableRecord
100
AcDbRegAppTableRecord
2
ACAD
70
0
0
ENDTAB
0
TABLE
2
DIMSTYLE
5
A
100
AcDbSymbolTable
70
1
0
ENDTAB
0
TABLE
2
BLOCK_RECORD
5
1
100
AcDbSymbolTable
70
1
0
BLOCK_RECORD
5
1F
100
AcDbSymbolTableRecord
100
AcDbBlockTableRecord
2
*MODEL_SPACE
0
BLOCK_RECORD
5
1B
100
AcDbSymbolTableRecord
100
AcDbBlockTableRecord
2
*PAPER_SPACE
0
ENDTAB
0
ENDSEC
0
SECTION
2
BLOCKS
0
BLOCK
5
20
100
AcDbEntity
100
AcDbBlockBegin
2
*MODEL_SPACE
0
ENDBLK
5
21
100
AcDbEntity
100
AcDbBlockEnd
0
BLOCK
5
1C
100
AcDbEntity
100
AcDbBlockBegin
2
*PAPER_SPACE
0
ENDBLK
5
1D
100
AcDbEntity
100
AcDbBlockEnd
0
ENDSEC
0
SECTION
2
ENTITIES
0
CIRCLE
5
100
100
AcDbEntity
8
0
100
AcDbCircle
10
-15.33210678118655
20
102.48210678118646
30
-8.2156503822261584e-14
40
1.4250000000000007
210
0
220
0
230
1
0
CIRCLE
5
101
100
AcDbEntity
8
0
100
AcDbCircle
10
102.48210678118656
20
102.48210678118645
30
-8.2156503822261584e-14
40
1.4250000000000007
210
0
220
0
230
1
0
CIRCLE
5
102
100
AcDbEntity
8
0
100
AcDbCircle
10
-15.332106781186567
20
-25.332106781186571
30
-8.2156503822261584e-14
40
1.4250000000000007
210
0
220
0
230
1
0
CIRCLE
5
103
100
AcDbEntity
8
0
100
AcDbCircle
10
102.48210678118659
20
-25.332106781186567
30
-8.2156503822261584e-14
40
1.4250000000000007
210
0
220
0
230
1
0
CIRCLE
5
104
100
AcDbEntity
8
0
100
AcDbCircle
10
45.950000000000017
20
-17.00000000000006
30
-8.2156503822261584e-14
40
1.4999999999999947
210
0
220
0
230
1
0
CIRCLE
5
105
100
AcDbEntity
8
0
100
AcDbCircle
10
14.5
20
-17.00000000000006
30
-8.2156503822261584e-14
40
5.8250000000000028
210
0
220
0
230
1
0
CIRCLE
5
106
100
AcDbEntity
8
0
100
AcDbCircle
10
50.57500000000001
20
-17.00000000000006
30
-8.2156503822261584e-14
40
1.4999999999999947
210
0
220
0
230
1
0
CIRCLE
5
107
100
AcDbEntity
8
0
100
AcDbCircle
10
41.32500000000001
20
-17.00000000000006
30
-8.2156503822261584e-14
40
1.5000000000000036
210
0
220
0
230
1
0
CIRCLE
5
108
100
AcDbEntity
8
0
100
AcDbCircle
10
36.70000000000001
20
-17.00000000000006
30
-8.2156503822261584e-14
40
1.5000000000000036
210
0
220
0
230
1
0
CIRCLE
5
109
100
AcDbEntity
8
0
100
AcDbCircle
10
72.65000000000002
20
-17.00000000000006
30
-8.2156503822261584e-14
40
5.8249999999999957
210
0
220
0
230
1
0
CIRCLE
5
110
100
AcDbEntity
8
0
100
AcDbCircle
10
87.150000000000006
20
-2.9973658295564745e-14
30
-8.2156503822261584e-14
40
3.4249999999999936
210
0
220
0
230
1
0
CIRCLE
5
111
100
AcDbEntity
8
0
100
AcDbCircle
10
29.049999999999997
20
-2.9973658295564745e-14
30
-8.2156503822261584e-14
40
3.4250000000000025
210
0
220
0
230
1
0
CIRCLE
5
112
100
AcDbEntity
8
0
100
AcDbCircle
10
58.099999999999994
20
-2.9973658295564745e-14
30
-8.2156503822261584e-14
40
3.4249999999999936
210
0
220
0
230
1
0
CIRCLE
5
113
100
AcDbEntity
8
0
100
AcDbCircle
10
4.4677019457821502e-17
20
-2.9973658295564745e-14
30
-8.2156503822261584e-14
40
3.4250000000000003
210
0
220
0
230
1
0
CIRCLE
5
114
100
AcDbEntity
8
0
100
AcDbCircle
10
58.099999999999994
20
29.049999999999969
30
-8.2156503822261584e-14
40
3.4249999999999936
210
0
220
0
230
1
0
CIRCLE
5
115
100
AcDbEntity
8
0
100
AcDbCircle
10
4.4677019457821502e-17
20
29.049999999999969
30
-8.2156503822261584e-14
40
3.4250000000000003
210
0
220
0
230
1
0
CIRCLE
5
116
100
AcDbEntity
8
0
100
AcDbCircle
10
58.099999999999994
20
87.149999999999963
30
-8.2156503822261584e-14
40
3.4249999999999936
210
0
220
0
230
1
0
CIRCLE
5
117
100
AcDbEntity
8
0
100
AcDbCircle
10
29.049999999999997
20
58.099999999999966
30
-8.2156503822261584e-14
40
3.4250000000000025
210
0
220
0
230
1
0
CIRCLE
5
118
100
AcDbEntity
8
0
100
AcDbCircle
10
87.150000000000006
20
29.049999999999969
30
-8.2156503822261584e-14
40
3.4249999999999936
210
0
220
0
230
1
0
CIRCLE
5
119
100
AcDbEntity
8
0
100
AcDbCircle
10
87.150000000000006
20
58.099999999999966
30
-8.2156503822261584e-14
40
3.4249999999999936
210
0
220
0
230
1
0
CIRCLE
5
120
100
AcDbEntity
8
0
100
AcDbCircle
10
87.150000000000006
20
87.149999999999963
30
-8.2156503822261584e-14
40
3.4249999999999936
210
0
220
0
230
1
0
CIRCLE
5
121
100
AcDbEntity
8
0
100
AcDbCircle
10
4.4677019457821502e-17
20
58.099999999999966
30
-8.2156503822261584e-14
40
3.4250000000000003
210
0
220
0
230
1
0
CIRCLE
5
122
100
AcDbEntity
8
0
100
AcDbCircle
10
4.4677019457821502e-17
20
87.149999999999963
30
-8.2156503822261584e-14
40
3.4250000000000003
210
0
220
0
230
1
0
CIRCLE
5
123
100
AcDbEntity
8
0
100
AcDbCircle
10
58.099999999999994
20
58.099999999999966
30
-8.2156503822261584e-14
40
3.4249999999999936
210
0
220
0
230
1
0
CIRCLE
5
124
100
AcDbEntity
8
0
100
AcDbCircle
10
29.049999999999997
20
87.149999999999963
30
-8.2156503822261584e-14
40
3.4250000000000025
210
0
220
0
230
1
0
CIRCLE
5
125
100
AcDbEntity
8
0
100
AcDbCircle
10
29.049999999999997
20
29.049999999999969
30
-8.2156503822261584e-14
40
3.4250000000000025
210
0
220
0
230
1
0
LWPOLYLINE
5
126
100
AcDbEntity
8
0
100
AcDbPolyline
90
4
70
1
43
0.0
10
50.724999999999994
20
88.324999999999932
10
50.724999999999994
20
85.974999999999937
10
49.375000000000007
20
85.974999999999937
10
49.375000000000007
20
88.324999999999932
0
LWPOLYLINE
5
127
100
AcDbEntity
8
0
100
AcDbPolyline
90
4
70
1
43
0.0
10
20.324999999999996
20
56.924999999999955
10
20.324999999999996
20
59.274999999999949
10
21.675000000000004
20
59.274999999999949
10
21.675000000000004
20
56.924999999999955
0
LWPOLYLINE
5
128
100
AcDbEntity
8
0
100
AcDbPolyline
90
4
70
1
43
0.0
10
50.724999999999994
20
27.874999999999943
10
49.375000000000007
20
27.874999999999943
10
49.375000000000007
20
30.224999999999937
10
50.724999999999994
20
30.224999999999937
0
LWPOLYLINE
5
129
100
AcDbEntity
8
0
100
AcDbPolyline
90
4
70
1
43
0.0
10
20.324999999999996
20
1.1749999999999405
10
21.675000000000004
20
1.1749999999999405
10
21.675000000000004
20
-1.1750000000000627
10
20.324999999999996
20
-1.1750000000000627
0
LWPOLYLINE
5
130
100
AcDbEntity
8
0
100
AcDbPolyline
90
4
70
1
43
0.0
10
49.375000000000007
20
1.1749999999999361
10
50.724999999999994
20
1.1749999999999361
10
50.724999999999994
20
-1.1750000000000582
10
49.375000000000007
20
-1.1750000000000582
0
LWPOLYLINE
5
131
100
AcDbEntity
8
0
100
AcDbPolyline
90
4
70
1
43
0.0
10
21.675000000000004
20
27.87499999999994
10
20.324999999999996
20
27.87499999999994
10
20.324999999999996
20
30.224999999999941
10
21.675000000000004
20
30.224999999999941
0
LWPOLYLINE
5
132
100
AcDbEntity
8
0
100
AcDbPolyline
90
4
70
1
43
0.0
10
49.375000000000007
20
59.274999999999949
10
50.724999999999994
20
59.274999999999949
10
50.724999999999994
20
56.924999999999955
10
49.375000000000007
20
56.924999999999955
0
LWPOLYLINE
5
133
100
AcDbEntity
8
0
100
AcDbPolyline
90
4
70
1
43
0.0
10
20.324999999999996
20
88.324999999999932
10
21.675000000000004
20
88.324999999999932
10
21.675000000000004
20
85.974999999999937
10
20.324999999999996
20
85.974999999999937
0
LWPOLYLINE
5
134
100
AcDbEntity
8
0
100
AcDbPolyline
90
4
70
1
43
0.0
10
78.424999999999997
20
88.324999999999932
10
79.774999999999991
20
88.324999999999932
10
79.774999999999991
20
85.974999999999937
10
78.424999999999997
20
85.974999999999937
0
LWPOLYLINE
5
135
100
AcDbEntity
8
0
100
AcDbPolyline
90
4
70
1
43
0.0
10
-8.7250000000000014
20
59.274999999999949
10
-7.3749999999999991
20
59.274999999999949
10
-7.3749999999999991
20
56.924999999999955
10
-8.7250000000000014
20
56.924999999999955
0
LWPOLYLINE
5
136
100
AcDbEntity
8
0
100
AcDbPolyline
90
4
70
1
43
0.0
10
79.774999999999991
20
27.874999999999943
10
78.424999999999997
20
27.874999999999943
10
78.424999999999997
20
30.224999999999937
10
79.774999999999991
20
30.224999999999937
0
LWPOLYLINE
5
137
100
AcDbEntity
8
0
100
AcDbPolyline
90
4
70
1
43
0.0
10
-8.7250000000000014
20
-1.1750000000000611
10
-8.7250000000000014
20
1.1749999999999392
10
-7.3749999999999991
20
1.174999999999939
10
-7.3749999999999991
20
-1.1750000000000609
0
LWPOLYLINE
5
138
100
AcDbEntity
8
0
100
AcDbPolyline
90
4
70
1
43
0.0
10
78.424999999999997
20
1.1749999999999361
10
79.774999999999991
20
1.1749999999999361
10
79.774999999999991
20
-1.1750000000000582
10
78.424999999999997
20
-1.1750000000000582
0
LWPOLYLINE
5
139
100
AcDbEntity
8
0
100
AcDbPolyline
90
4
70
1
43
0.0
10
-8.7250000000000014
20
30.224999999999941
10
-7.3749999999999991
20
30.224999999999941
10
-7.3749999999999991
20
27.87499999999994
10
-8.7250000000000014
20
27.87499999999994
0
LWPOLYLINE
5
140
100
AcDbEntity
8
0
100
AcDbPolyline
90
4
70
1
43
0.0
10
78.424999999999997
20
59.274999999999949
10
79.774999999999991
20
59.274999999999949
10
79.774999999999991
20
56.924999999999955
10
78.424999999999997
20
56.924999999999955
0
LWPOLYLINE
5
141
100
AcDbEntity
8
0
100
AcDbPolyline
90
4
70
1
43
0.0
10
-8.7250000000000014
20
88.324999999999932
10
-7.3749999999999991
20
88.324999999999932
10
-7.3749999999999991
20
85.974999999999937
10
-8.7250000000000014
20
85.974999999999937
0
LWPOLYLINE
5
142
100
AcDbEntity
8
0
100
AcDbPolyline
90
8
70
1
43
0.0
10
103.15000000000001
20
-28.075000000000038
42
0.41421356237309503
10
105.22500000000001
20
-26.000000000000032
10
105.22500000000001
20
103.14999999999998
42
0.41421356237309503
10
103.15000000000001
20
105.22499999999997
10
-16.000000000000014
20
105.22499999999997
42
0.41421356237309415
10
-18.075000000000003
20
103.14999999999998
10
-18.075000000000003
20
-26.00000000000005
42
0.41421356237309381
10
-16.000000000000011
20
-28.075000000000031
0
ENDSEC
0
SECTION
2
OBJECTS
0
DICTIONARY
5
C
100
AcDbDictionary
3
ACAD_GROUP
350
D
3
ACAD_MLINESTYLE
350
17
0
DICTIONARY
5
D
100
AcDbDictionary
0
DICTIONARY
5
1A
330
C
100
AcDbDictionary
0
DICTIONARY
5
17
100
AcDbDictionary
0
ENDSEC
0
EOF
